<mxfile host="app.diagrams.net" agent="Mozilla/5.0 (Windows NT 10.0; Win64; x64; rv:138.0) Gecko/20100101 Firefox/138.0" version="27.0.6">
  <diagram name="Page-1" id="ldX45UWWgHhQOTZwwglj">
    <mxGraphModel dx="1728" dy="956" grid="1" gridSize="10" guides="1" tooltips="1" connect="1" arrows="1" fold="1" page="1" pageScale="1" pageWidth="827" pageHeight="1169" math="0" shadow="0">
      <root>
        <mxCell id="0" />
        <mxCell id="1" parent="0" />
        <mxCell id="CX8VXaGz0tjRuIeD6k8V-15" style="edgeStyle=orthogonalEdgeStyle;rounded=0;orthogonalLoop=1;jettySize=auto;html=1;entryX=0.5;entryY=0;entryDx=0;entryDy=0;" edge="1" parent="1" source="7jAFLYlnToqP1OYzs7xx-1" target="7jAFLYlnToqP1OYzs7xx-2">
          <mxGeometry relative="1" as="geometry" />
        </mxCell>
        <mxCell id="7jAFLYlnToqP1OYzs7xx-1" value="&lt;font style=&quot;font-size: 22px; color: light-dark(rgb(255, 255, 255), rgb(237, 237, 237));&quot;&gt;Input&lt;/font&gt;" style="rounded=0;whiteSpace=wrap;html=1;rotation=-90;fillColor=light-dark(#5ba457, #1f2f1e);strokeColor=light-dark(#000000, #446e2c);horizontal=0;textDirection=vertical-rl;strokeWidth=2;" parent="1" vertex="1">
          <mxGeometry x="-20" y="190" width="120" height="40" as="geometry" />
        </mxCell>
        <mxCell id="CX8VXaGz0tjRuIeD6k8V-16" style="edgeStyle=orthogonalEdgeStyle;rounded=0;orthogonalLoop=1;jettySize=auto;html=1;entryX=0.5;entryY=0;entryDx=0;entryDy=0;" edge="1" parent="1" source="7jAFLYlnToqP1OYzs7xx-2" target="7jAFLYlnToqP1OYzs7xx-3">
          <mxGeometry relative="1" as="geometry" />
        </mxCell>
        <mxCell id="7jAFLYlnToqP1OYzs7xx-2" value="&lt;font style=&quot;font-size: 22px;&quot;&gt;Conv2D&lt;/font&gt;" style="rounded=0;whiteSpace=wrap;html=1;rotation=-90;fillColor=#1ba1e2;fontColor=#ffffff;strokeColor=light-dark(#000000, #51afe7);strokeWidth=2;" parent="1" vertex="1">
          <mxGeometry x="40" y="190" width="120" height="40" as="geometry" />
        </mxCell>
        <mxCell id="CX8VXaGz0tjRuIeD6k8V-67" style="edgeStyle=orthogonalEdgeStyle;rounded=0;orthogonalLoop=1;jettySize=auto;html=1;entryX=0;entryY=0.5;entryDx=0;entryDy=0;" edge="1" parent="1" source="7jAFLYlnToqP1OYzs7xx-3" target="CX8VXaGz0tjRuIeD6k8V-1">
          <mxGeometry relative="1" as="geometry" />
        </mxCell>
        <mxCell id="7jAFLYlnToqP1OYzs7xx-3" value="&lt;font style=&quot;font-size: 21px;&quot;&gt;&lt;span style=&quot;color: light-dark(rgb(255, 255, 255), rgb(237, 237, 237));&quot;&gt;LeakyRELU&lt;/span&gt;&lt;/font&gt;" style="rounded=0;whiteSpace=wrap;html=1;rotation=-90;fillColor=#f0a30a;strokeColor=light-dark(#000000, #51afe7);fontColor=#000000;strokeWidth=2;" parent="1" vertex="1">
          <mxGeometry x="100" y="190" width="120" height="40" as="geometry" />
        </mxCell>
        <mxCell id="CX8VXaGz0tjRuIeD6k8V-62" style="edgeStyle=orthogonalEdgeStyle;rounded=0;orthogonalLoop=1;jettySize=auto;html=1;" edge="1" parent="1" source="7jAFLYlnToqP1OYzs7xx-6" target="7jAFLYlnToqP1OYzs7xx-8">
          <mxGeometry relative="1" as="geometry" />
        </mxCell>
        <mxCell id="7jAFLYlnToqP1OYzs7xx-6" value="&lt;font style=&quot;font-size: 22px;&quot;&gt;Sigmoid&lt;/font&gt;" style="rounded=0;whiteSpace=wrap;html=1;rotation=-90;fillColor=#dae8fc;strokeColor=#6c8ebf;strokeWidth=2;" parent="1" vertex="1">
          <mxGeometry x="1390" y="190" width="120" height="40" as="geometry" />
        </mxCell>
        <mxCell id="7jAFLYlnToqP1OYzs7xx-8" value="&lt;div&gt;&lt;font style=&quot;font-size: 22px; color: rgb(255, 255, 255);&quot;&gt;Ouput&lt;/font&gt;&lt;/div&gt;" style="rounded=0;whiteSpace=wrap;html=1;rotation=-90;fillColor=light-dark(#5ba457, #1f2f1e);strokeColor=light-dark(#000000, #446e2c);horizontal=0;textDirection=vertical-rl;strokeWidth=2;" parent="1" vertex="1">
          <mxGeometry x="1450" y="190" width="120" height="40" as="geometry" />
        </mxCell>
        <mxCell id="7jAFLYlnToqP1OYzs7xx-16" value="&lt;div&gt;3 → 64 Kernel : 3x3&lt;/div&gt;&lt;div&gt;Stride: 1&lt;/div&gt;" style="text;html=1;align=center;verticalAlign=middle;whiteSpace=wrap;rounded=0;" parent="1" vertex="1">
          <mxGeometry x="62" y="100" width="76" height="30" as="geometry" />
        </mxCell>
        <mxCell id="CX8VXaGz0tjRuIeD6k8V-61" value="" style="endArrow=classic;html=1;rounded=0;exitX=1;exitY=0.5;exitDx=0;exitDy=0;entryX=0.5;entryY=0;entryDx=0;entryDy=0;" edge="1" parent="1" source="CX8VXaGz0tjRuIeD6k8V-122">
          <mxGeometry width="50" height="50" relative="1" as="geometry">
            <mxPoint x="1210" y="210" as="sourcePoint" />
            <mxPoint x="1250" y="210" as="targetPoint" />
          </mxGeometry>
        </mxCell>
        <mxCell id="CX8VXaGz0tjRuIeD6k8V-75" value="&lt;div&gt;64→ 128 Kernel : 3x3&lt;/div&gt;&lt;div&gt;Stride: 1&lt;/div&gt;" style="text;html=1;align=center;verticalAlign=middle;whiteSpace=wrap;rounded=0;" vertex="1" parent="1">
          <mxGeometry x="436" y="80" width="76" height="20" as="geometry" />
        </mxCell>
        <mxCell id="CX8VXaGz0tjRuIeD6k8V-20" value="&lt;div&gt;64 → 64 Kernel : 3x3&lt;/div&gt;&lt;div&gt;Stride: 2&lt;/div&gt;" style="text;html=1;align=center;verticalAlign=middle;whiteSpace=wrap;rounded=0;" vertex="1" parent="1">
          <mxGeometry x="257" y="80" width="76" height="20" as="geometry" />
        </mxCell>
        <mxCell id="CX8VXaGz0tjRuIeD6k8V-92" value="" style="group" vertex="1" connectable="0" parent="1">
          <mxGeometry x="414" y="110" width="120" height="200" as="geometry" />
        </mxCell>
        <mxCell id="CX8VXaGz0tjRuIeD6k8V-69" value="" style="rounded=1;whiteSpace=wrap;html=1;fillColor=#b1ddf0;strokeColor=#10739e;" vertex="1" parent="CX8VXaGz0tjRuIeD6k8V-92">
          <mxGeometry width="120" height="200" as="geometry" />
        </mxCell>
        <mxCell id="CX8VXaGz0tjRuIeD6k8V-70" style="edgeStyle=orthogonalEdgeStyle;rounded=0;orthogonalLoop=1;jettySize=auto;html=1;" edge="1" parent="CX8VXaGz0tjRuIeD6k8V-92" source="CX8VXaGz0tjRuIeD6k8V-71" target="CX8VXaGz0tjRuIeD6k8V-73">
          <mxGeometry relative="1" as="geometry" />
        </mxCell>
        <mxCell id="CX8VXaGz0tjRuIeD6k8V-71" value="" style="rounded=0;whiteSpace=wrap;html=1;rotation=-90;fillColor=#1ba1e2;fontColor=#ffffff;strokeColor=light-dark(#000000, #51afe7);strokeWidth=2;" vertex="1" parent="CX8VXaGz0tjRuIeD6k8V-92">
          <mxGeometry x="-36" y="90" width="120" height="20" as="geometry" />
        </mxCell>
        <mxCell id="CX8VXaGz0tjRuIeD6k8V-72" style="edgeStyle=orthogonalEdgeStyle;rounded=0;orthogonalLoop=1;jettySize=auto;html=1;" edge="1" parent="CX8VXaGz0tjRuIeD6k8V-92" source="CX8VXaGz0tjRuIeD6k8V-73" target="CX8VXaGz0tjRuIeD6k8V-74">
          <mxGeometry relative="1" as="geometry" />
        </mxCell>
        <mxCell id="CX8VXaGz0tjRuIeD6k8V-73" value="" style="rounded=0;whiteSpace=wrap;html=1;rotation=-90;fillColor=#a20025;strokeColor=#6F0000;strokeWidth=2;fontColor=#ffffff;" vertex="1" parent="CX8VXaGz0tjRuIeD6k8V-92">
          <mxGeometry y="90" width="120" height="20" as="geometry" />
        </mxCell>
        <mxCell id="CX8VXaGz0tjRuIeD6k8V-74" value="" style="rounded=0;whiteSpace=wrap;html=1;rotation=-90;fillColor=#f0a30a;strokeColor=light-dark(#000000, #51afe7);fontColor=#000000;strokeWidth=2;" vertex="1" parent="CX8VXaGz0tjRuIeD6k8V-92">
          <mxGeometry x="40" y="90" width="120" height="20" as="geometry" />
        </mxCell>
        <mxCell id="CX8VXaGz0tjRuIeD6k8V-93" value="" style="group" vertex="1" connectable="0" parent="1">
          <mxGeometry x="554" y="110" width="120" height="200" as="geometry" />
        </mxCell>
        <mxCell id="CX8VXaGz0tjRuIeD6k8V-94" value="" style="rounded=1;whiteSpace=wrap;html=1;fillColor=#b1ddf0;strokeColor=#10739e;" vertex="1" parent="CX8VXaGz0tjRuIeD6k8V-93">
          <mxGeometry width="120" height="200" as="geometry" />
        </mxCell>
        <mxCell id="CX8VXaGz0tjRuIeD6k8V-95" style="edgeStyle=orthogonalEdgeStyle;rounded=0;orthogonalLoop=1;jettySize=auto;html=1;" edge="1" parent="CX8VXaGz0tjRuIeD6k8V-93" source="CX8VXaGz0tjRuIeD6k8V-96" target="CX8VXaGz0tjRuIeD6k8V-98">
          <mxGeometry relative="1" as="geometry" />
        </mxCell>
        <mxCell id="CX8VXaGz0tjRuIeD6k8V-96" value="" style="rounded=0;whiteSpace=wrap;html=1;rotation=-90;fillColor=#1ba1e2;fontColor=#ffffff;strokeColor=light-dark(#000000, #51afe7);strokeWidth=2;" vertex="1" parent="CX8VXaGz0tjRuIeD6k8V-93">
          <mxGeometry x="-36" y="90" width="120" height="20" as="geometry" />
        </mxCell>
        <mxCell id="CX8VXaGz0tjRuIeD6k8V-97" style="edgeStyle=orthogonalEdgeStyle;rounded=0;orthogonalLoop=1;jettySize=auto;html=1;" edge="1" parent="CX8VXaGz0tjRuIeD6k8V-93" source="CX8VXaGz0tjRuIeD6k8V-98" target="CX8VXaGz0tjRuIeD6k8V-99">
          <mxGeometry relative="1" as="geometry" />
        </mxCell>
        <mxCell id="CX8VXaGz0tjRuIeD6k8V-98" value="" style="rounded=0;whiteSpace=wrap;html=1;rotation=-90;fillColor=#a20025;strokeColor=#6F0000;strokeWidth=2;fontColor=#ffffff;" vertex="1" parent="CX8VXaGz0tjRuIeD6k8V-93">
          <mxGeometry y="90" width="120" height="20" as="geometry" />
        </mxCell>
        <mxCell id="CX8VXaGz0tjRuIeD6k8V-99" value="" style="rounded=0;whiteSpace=wrap;html=1;rotation=-90;fillColor=#f0a30a;strokeColor=light-dark(#000000, #51afe7);fontColor=#000000;strokeWidth=2;" vertex="1" parent="CX8VXaGz0tjRuIeD6k8V-93">
          <mxGeometry x="40" y="90" width="120" height="20" as="geometry" />
        </mxCell>
        <mxCell id="CX8VXaGz0tjRuIeD6k8V-100" value="" style="group" vertex="1" connectable="0" parent="1">
          <mxGeometry x="691" y="110" width="120" height="200" as="geometry" />
        </mxCell>
        <mxCell id="CX8VXaGz0tjRuIeD6k8V-101" value="" style="rounded=1;whiteSpace=wrap;html=1;fillColor=#b1ddf0;strokeColor=#10739e;" vertex="1" parent="CX8VXaGz0tjRuIeD6k8V-100">
          <mxGeometry width="120" height="200" as="geometry" />
        </mxCell>
        <mxCell id="CX8VXaGz0tjRuIeD6k8V-102" style="edgeStyle=orthogonalEdgeStyle;rounded=0;orthogonalLoop=1;jettySize=auto;html=1;" edge="1" parent="CX8VXaGz0tjRuIeD6k8V-100" source="CX8VXaGz0tjRuIeD6k8V-103" target="CX8VXaGz0tjRuIeD6k8V-105">
          <mxGeometry relative="1" as="geometry" />
        </mxCell>
        <mxCell id="CX8VXaGz0tjRuIeD6k8V-103" value="" style="rounded=0;whiteSpace=wrap;html=1;rotation=-90;fillColor=#1ba1e2;fontColor=#ffffff;strokeColor=light-dark(#000000, #51afe7);strokeWidth=2;" vertex="1" parent="CX8VXaGz0tjRuIeD6k8V-100">
          <mxGeometry x="-36" y="90" width="120" height="20" as="geometry" />
        </mxCell>
        <mxCell id="CX8VXaGz0tjRuIeD6k8V-104" style="edgeStyle=orthogonalEdgeStyle;rounded=0;orthogonalLoop=1;jettySize=auto;html=1;" edge="1" parent="CX8VXaGz0tjRuIeD6k8V-100" source="CX8VXaGz0tjRuIeD6k8V-105" target="CX8VXaGz0tjRuIeD6k8V-106">
          <mxGeometry relative="1" as="geometry" />
        </mxCell>
        <mxCell id="CX8VXaGz0tjRuIeD6k8V-105" value="" style="rounded=0;whiteSpace=wrap;html=1;rotation=-90;fillColor=#a20025;strokeColor=#6F0000;strokeWidth=2;fontColor=#ffffff;" vertex="1" parent="CX8VXaGz0tjRuIeD6k8V-100">
          <mxGeometry y="90" width="120" height="20" as="geometry" />
        </mxCell>
        <mxCell id="CX8VXaGz0tjRuIeD6k8V-106" value="" style="rounded=0;whiteSpace=wrap;html=1;rotation=-90;fillColor=#f0a30a;strokeColor=light-dark(#000000, #51afe7);fontColor=#000000;strokeWidth=2;" vertex="1" parent="CX8VXaGz0tjRuIeD6k8V-100">
          <mxGeometry x="40" y="90" width="120" height="20" as="geometry" />
        </mxCell>
        <mxCell id="CX8VXaGz0tjRuIeD6k8V-107" value="" style="group" vertex="1" connectable="0" parent="1">
          <mxGeometry x="824" y="110" width="120" height="200" as="geometry" />
        </mxCell>
        <mxCell id="CX8VXaGz0tjRuIeD6k8V-137" style="edgeStyle=orthogonalEdgeStyle;rounded=0;orthogonalLoop=1;jettySize=auto;html=1;exitX=1;exitY=0.5;exitDx=0;exitDy=0;" edge="1" parent="CX8VXaGz0tjRuIeD6k8V-107" source="CX8VXaGz0tjRuIeD6k8V-108">
          <mxGeometry relative="1" as="geometry">
            <mxPoint x="139.99999999999955" y="99.88235294117658" as="targetPoint" />
          </mxGeometry>
        </mxCell>
        <mxCell id="CX8VXaGz0tjRuIeD6k8V-108" value="" style="rounded=1;whiteSpace=wrap;html=1;fillColor=#b1ddf0;strokeColor=#10739e;" vertex="1" parent="CX8VXaGz0tjRuIeD6k8V-107">
          <mxGeometry width="120" height="200" as="geometry" />
        </mxCell>
        <mxCell id="CX8VXaGz0tjRuIeD6k8V-109" style="edgeStyle=orthogonalEdgeStyle;rounded=0;orthogonalLoop=1;jettySize=auto;html=1;" edge="1" parent="CX8VXaGz0tjRuIeD6k8V-107" source="CX8VXaGz0tjRuIeD6k8V-110" target="CX8VXaGz0tjRuIeD6k8V-112">
          <mxGeometry relative="1" as="geometry" />
        </mxCell>
        <mxCell id="CX8VXaGz0tjRuIeD6k8V-110" value="" style="rounded=0;whiteSpace=wrap;html=1;rotation=-90;fillColor=#1ba1e2;fontColor=#ffffff;strokeColor=light-dark(#000000, #51afe7);strokeWidth=2;" vertex="1" parent="CX8VXaGz0tjRuIeD6k8V-107">
          <mxGeometry x="-36" y="90" width="120" height="20" as="geometry" />
        </mxCell>
        <mxCell id="CX8VXaGz0tjRuIeD6k8V-111" style="edgeStyle=orthogonalEdgeStyle;rounded=0;orthogonalLoop=1;jettySize=auto;html=1;" edge="1" parent="CX8VXaGz0tjRuIeD6k8V-107" source="CX8VXaGz0tjRuIeD6k8V-112" target="CX8VXaGz0tjRuIeD6k8V-113">
          <mxGeometry relative="1" as="geometry" />
        </mxCell>
        <mxCell id="CX8VXaGz0tjRuIeD6k8V-112" value="" style="rounded=0;whiteSpace=wrap;html=1;rotation=-90;fillColor=#a20025;strokeColor=#6F0000;strokeWidth=2;fontColor=#ffffff;" vertex="1" parent="CX8VXaGz0tjRuIeD6k8V-107">
          <mxGeometry y="90" width="120" height="20" as="geometry" />
        </mxCell>
        <mxCell id="CX8VXaGz0tjRuIeD6k8V-113" value="" style="rounded=0;whiteSpace=wrap;html=1;rotation=-90;fillColor=#f0a30a;strokeColor=light-dark(#000000, #51afe7);fontColor=#000000;strokeWidth=2;" vertex="1" parent="CX8VXaGz0tjRuIeD6k8V-107">
          <mxGeometry x="40" y="90" width="120" height="20" as="geometry" />
        </mxCell>
        <mxCell id="CX8VXaGz0tjRuIeD6k8V-114" value="" style="group" vertex="1" connectable="0" parent="1">
          <mxGeometry x="964" y="110" width="120" height="200" as="geometry" />
        </mxCell>
        <mxCell id="CX8VXaGz0tjRuIeD6k8V-115" value="" style="rounded=1;whiteSpace=wrap;html=1;fillColor=#b1ddf0;strokeColor=#10739e;" vertex="1" parent="CX8VXaGz0tjRuIeD6k8V-114">
          <mxGeometry width="120" height="200" as="geometry" />
        </mxCell>
        <mxCell id="CX8VXaGz0tjRuIeD6k8V-116" style="edgeStyle=orthogonalEdgeStyle;rounded=0;orthogonalLoop=1;jettySize=auto;html=1;" edge="1" parent="CX8VXaGz0tjRuIeD6k8V-114" source="CX8VXaGz0tjRuIeD6k8V-117" target="CX8VXaGz0tjRuIeD6k8V-119">
          <mxGeometry relative="1" as="geometry" />
        </mxCell>
        <mxCell id="CX8VXaGz0tjRuIeD6k8V-117" value="" style="rounded=0;whiteSpace=wrap;html=1;rotation=-90;fillColor=#1ba1e2;fontColor=#ffffff;strokeColor=light-dark(#000000, #51afe7);strokeWidth=2;" vertex="1" parent="CX8VXaGz0tjRuIeD6k8V-114">
          <mxGeometry x="-36" y="90" width="120" height="20" as="geometry" />
        </mxCell>
        <mxCell id="CX8VXaGz0tjRuIeD6k8V-118" style="edgeStyle=orthogonalEdgeStyle;rounded=0;orthogonalLoop=1;jettySize=auto;html=1;" edge="1" parent="CX8VXaGz0tjRuIeD6k8V-114" source="CX8VXaGz0tjRuIeD6k8V-119" target="CX8VXaGz0tjRuIeD6k8V-120">
          <mxGeometry relative="1" as="geometry" />
        </mxCell>
        <mxCell id="CX8VXaGz0tjRuIeD6k8V-119" value="" style="rounded=0;whiteSpace=wrap;html=1;rotation=-90;fillColor=#a20025;strokeColor=#6F0000;strokeWidth=2;fontColor=#ffffff;" vertex="1" parent="CX8VXaGz0tjRuIeD6k8V-114">
          <mxGeometry y="90" width="120" height="20" as="geometry" />
        </mxCell>
        <mxCell id="CX8VXaGz0tjRuIeD6k8V-120" value="" style="rounded=0;whiteSpace=wrap;html=1;rotation=-90;fillColor=#f0a30a;strokeColor=light-dark(#000000, #51afe7);fontColor=#000000;strokeWidth=2;" vertex="1" parent="CX8VXaGz0tjRuIeD6k8V-114">
          <mxGeometry x="40" y="90" width="120" height="20" as="geometry" />
        </mxCell>
        <mxCell id="CX8VXaGz0tjRuIeD6k8V-121" value="" style="group" vertex="1" connectable="0" parent="1">
          <mxGeometry x="1105" y="110" width="120" height="200" as="geometry" />
        </mxCell>
        <mxCell id="CX8VXaGz0tjRuIeD6k8V-122" value="" style="rounded=1;whiteSpace=wrap;html=1;fillColor=#b1ddf0;strokeColor=#10739e;" vertex="1" parent="CX8VXaGz0tjRuIeD6k8V-121">
          <mxGeometry width="120" height="200" as="geometry" />
        </mxCell>
        <mxCell id="CX8VXaGz0tjRuIeD6k8V-123" style="edgeStyle=orthogonalEdgeStyle;rounded=0;orthogonalLoop=1;jettySize=auto;html=1;" edge="1" parent="CX8VXaGz0tjRuIeD6k8V-121" source="CX8VXaGz0tjRuIeD6k8V-124" target="CX8VXaGz0tjRuIeD6k8V-126">
          <mxGeometry relative="1" as="geometry" />
        </mxCell>
        <mxCell id="CX8VXaGz0tjRuIeD6k8V-124" value="" style="rounded=0;whiteSpace=wrap;html=1;rotation=-90;fillColor=#1ba1e2;fontColor=#ffffff;strokeColor=light-dark(#000000, #51afe7);strokeWidth=2;" vertex="1" parent="CX8VXaGz0tjRuIeD6k8V-121">
          <mxGeometry x="-36" y="90" width="120" height="20" as="geometry" />
        </mxCell>
        <mxCell id="CX8VXaGz0tjRuIeD6k8V-125" style="edgeStyle=orthogonalEdgeStyle;rounded=0;orthogonalLoop=1;jettySize=auto;html=1;" edge="1" parent="CX8VXaGz0tjRuIeD6k8V-121" source="CX8VXaGz0tjRuIeD6k8V-126" target="CX8VXaGz0tjRuIeD6k8V-127">
          <mxGeometry relative="1" as="geometry" />
        </mxCell>
        <mxCell id="CX8VXaGz0tjRuIeD6k8V-126" value="" style="rounded=0;whiteSpace=wrap;html=1;rotation=-90;fillColor=#a20025;strokeColor=#6F0000;strokeWidth=2;fontColor=#ffffff;" vertex="1" parent="CX8VXaGz0tjRuIeD6k8V-121">
          <mxGeometry y="90" width="120" height="20" as="geometry" />
        </mxCell>
        <mxCell id="CX8VXaGz0tjRuIeD6k8V-127" value="" style="rounded=0;whiteSpace=wrap;html=1;rotation=-90;fillColor=#f0a30a;strokeColor=light-dark(#000000, #51afe7);fontColor=#000000;strokeWidth=2;" vertex="1" parent="CX8VXaGz0tjRuIeD6k8V-121">
          <mxGeometry x="40" y="90" width="120" height="20" as="geometry" />
        </mxCell>
        <mxCell id="CX8VXaGz0tjRuIeD6k8V-128" value="&lt;div&gt;128→ 128 Kernel : 3x3&lt;/div&gt;&lt;div&gt;Stride: 2&lt;/div&gt;" style="text;html=1;align=center;verticalAlign=middle;whiteSpace=wrap;rounded=0;" vertex="1" parent="1">
          <mxGeometry x="576" y="80" width="76" height="20" as="geometry" />
        </mxCell>
        <mxCell id="CX8VXaGz0tjRuIeD6k8V-129" value="&lt;div&gt;128→ 256 Kernel : 3x3&lt;/div&gt;&lt;div&gt;Stride: 1&lt;/div&gt;" style="text;html=1;align=center;verticalAlign=middle;whiteSpace=wrap;rounded=0;" vertex="1" parent="1">
          <mxGeometry x="713" y="80" width="76" height="20" as="geometry" />
        </mxCell>
        <mxCell id="CX8VXaGz0tjRuIeD6k8V-130" value="&lt;div&gt;256→ 256 Kernel : 3x3&lt;/div&gt;&lt;div&gt;Stride: 2&lt;/div&gt;" style="text;html=1;align=center;verticalAlign=middle;whiteSpace=wrap;rounded=0;" vertex="1" parent="1">
          <mxGeometry x="846" y="80" width="76" height="20" as="geometry" />
        </mxCell>
        <mxCell id="CX8VXaGz0tjRuIeD6k8V-131" value="&lt;div&gt;256→ 512 Kernel : 3x3&lt;/div&gt;&lt;div&gt;Stride: 1&lt;/div&gt;" style="text;html=1;align=center;verticalAlign=middle;whiteSpace=wrap;rounded=0;" vertex="1" parent="1">
          <mxGeometry x="986" y="80" width="76" height="20" as="geometry" />
        </mxCell>
        <mxCell id="CX8VXaGz0tjRuIeD6k8V-132" value="&lt;div&gt;512→ 512 Kernel : 3x3&lt;/div&gt;&lt;div&gt;Stride: 2&lt;/div&gt;" style="text;html=1;align=center;verticalAlign=middle;whiteSpace=wrap;rounded=0;" vertex="1" parent="1">
          <mxGeometry x="1127" y="80" width="76" height="20" as="geometry" />
        </mxCell>
        <mxCell id="CX8VXaGz0tjRuIeD6k8V-133" value="" style="endArrow=classic;html=1;rounded=0;exitX=1;exitY=0.5;exitDx=0;exitDy=0;entryX=0;entryY=0.5;entryDx=0;entryDy=0;" edge="1" parent="1" source="CX8VXaGz0tjRuIeD6k8V-1" target="CX8VXaGz0tjRuIeD6k8V-69">
          <mxGeometry width="50" height="50" relative="1" as="geometry">
            <mxPoint x="550" y="430" as="sourcePoint" />
            <mxPoint x="600" y="380" as="targetPoint" />
          </mxGeometry>
        </mxCell>
        <mxCell id="CX8VXaGz0tjRuIeD6k8V-134" style="edgeStyle=orthogonalEdgeStyle;rounded=0;orthogonalLoop=1;jettySize=auto;html=1;exitX=1;exitY=0.5;exitDx=0;exitDy=0;entryX=0;entryY=0.5;entryDx=0;entryDy=0;" edge="1" parent="1" source="CX8VXaGz0tjRuIeD6k8V-69" target="CX8VXaGz0tjRuIeD6k8V-94">
          <mxGeometry relative="1" as="geometry" />
        </mxCell>
        <mxCell id="CX8VXaGz0tjRuIeD6k8V-135" style="edgeStyle=orthogonalEdgeStyle;rounded=0;orthogonalLoop=1;jettySize=auto;html=1;exitX=1;exitY=0.5;exitDx=0;exitDy=0;entryX=0;entryY=0.5;entryDx=0;entryDy=0;" edge="1" parent="1" source="CX8VXaGz0tjRuIeD6k8V-94" target="CX8VXaGz0tjRuIeD6k8V-101">
          <mxGeometry relative="1" as="geometry" />
        </mxCell>
        <mxCell id="CX8VXaGz0tjRuIeD6k8V-136" style="edgeStyle=orthogonalEdgeStyle;rounded=0;orthogonalLoop=1;jettySize=auto;html=1;exitX=1;exitY=0.5;exitDx=0;exitDy=0;entryX=0;entryY=0.5;entryDx=0;entryDy=0;" edge="1" parent="1" source="CX8VXaGz0tjRuIeD6k8V-101" target="CX8VXaGz0tjRuIeD6k8V-108">
          <mxGeometry relative="1" as="geometry" />
        </mxCell>
        <mxCell id="CX8VXaGz0tjRuIeD6k8V-138" style="edgeStyle=orthogonalEdgeStyle;rounded=0;orthogonalLoop=1;jettySize=auto;html=1;exitX=1;exitY=0.5;exitDx=0;exitDy=0;entryX=0;entryY=0.5;entryDx=0;entryDy=0;" edge="1" parent="1" source="CX8VXaGz0tjRuIeD6k8V-115" target="CX8VXaGz0tjRuIeD6k8V-122">
          <mxGeometry relative="1" as="geometry" />
        </mxCell>
        <mxCell id="CX8VXaGz0tjRuIeD6k8V-139" value="" style="group" vertex="1" connectable="0" parent="1">
          <mxGeometry x="200" y="110" width="190" height="200" as="geometry" />
        </mxCell>
        <mxCell id="CX8VXaGz0tjRuIeD6k8V-1" value="" style="rounded=1;whiteSpace=wrap;html=1;fillColor=#b1ddf0;strokeColor=#10739e;" vertex="1" parent="CX8VXaGz0tjRuIeD6k8V-139">
          <mxGeometry width="190" height="200" as="geometry" />
        </mxCell>
        <mxCell id="CX8VXaGz0tjRuIeD6k8V-8" style="edgeStyle=orthogonalEdgeStyle;rounded=0;orthogonalLoop=1;jettySize=auto;html=1;" edge="1" parent="CX8VXaGz0tjRuIeD6k8V-139" source="7jAFLYlnToqP1OYzs7xx-4" target="CX8VXaGz0tjRuIeD6k8V-2">
          <mxGeometry relative="1" as="geometry" />
        </mxCell>
        <mxCell id="7jAFLYlnToqP1OYzs7xx-4" value="&lt;font style=&quot;font-size: 22px;&quot;&gt;Conv2D&lt;/font&gt;" style="rounded=0;whiteSpace=wrap;html=1;rotation=-90;fillColor=#1ba1e2;fontColor=#ffffff;strokeColor=light-dark(#000000, #51afe7);strokeWidth=2;" parent="CX8VXaGz0tjRuIeD6k8V-139" vertex="1">
          <mxGeometry x="-28.5" y="82.5" width="120" height="35" as="geometry" />
        </mxCell>
        <mxCell id="CX8VXaGz0tjRuIeD6k8V-9" style="edgeStyle=orthogonalEdgeStyle;rounded=0;orthogonalLoop=1;jettySize=auto;html=1;" edge="1" parent="CX8VXaGz0tjRuIeD6k8V-139" source="CX8VXaGz0tjRuIeD6k8V-2" target="CX8VXaGz0tjRuIeD6k8V-3">
          <mxGeometry relative="1" as="geometry" />
        </mxCell>
        <mxCell id="CX8VXaGz0tjRuIeD6k8V-2" value="&lt;font style=&quot;font-size: 22px;&quot;&gt;BN&lt;/font&gt;" style="rounded=0;whiteSpace=wrap;html=1;rotation=-90;fillColor=#a20025;strokeColor=#6F0000;strokeWidth=2;fontColor=#ffffff;" vertex="1" parent="CX8VXaGz0tjRuIeD6k8V-139">
          <mxGeometry x="30" y="82.5" width="120" height="37.5" as="geometry" />
        </mxCell>
        <mxCell id="CX8VXaGz0tjRuIeD6k8V-3" value="&lt;font style=&quot;font-size: 21px;&quot;&gt;&lt;span style=&quot;color: light-dark(rgb(255, 255, 255), rgb(237, 237, 237));&quot;&gt;LeakyRELU&lt;/span&gt;&lt;/font&gt;" style="rounded=0;whiteSpace=wrap;html=1;rotation=-90;fillColor=#f0a30a;strokeColor=light-dark(#000000, #51afe7);fontColor=#000000;strokeWidth=2;" vertex="1" parent="CX8VXaGz0tjRuIeD6k8V-139">
          <mxGeometry x="90" y="80" width="120" height="40" as="geometry" />
        </mxCell>
        <mxCell id="CX8VXaGz0tjRuIeD6k8V-142" style="edgeStyle=orthogonalEdgeStyle;rounded=0;orthogonalLoop=1;jettySize=auto;html=1;exitX=0.5;exitY=1;exitDx=0;exitDy=0;entryX=0.5;entryY=0;entryDx=0;entryDy=0;" edge="1" parent="1" source="CX8VXaGz0tjRuIeD6k8V-140" target="CX8VXaGz0tjRuIeD6k8V-141">
          <mxGeometry relative="1" as="geometry" />
        </mxCell>
        <mxCell id="CX8VXaGz0tjRuIeD6k8V-144" style="edgeStyle=orthogonalEdgeStyle;rounded=0;orthogonalLoop=1;jettySize=auto;html=1;exitX=0.5;exitY=1;exitDx=0;exitDy=0;entryX=0.5;entryY=0;entryDx=0;entryDy=0;" edge="1" parent="1" source="CX8VXaGz0tjRuIeD6k8V-143" target="7jAFLYlnToqP1OYzs7xx-6">
          <mxGeometry relative="1" as="geometry" />
        </mxCell>
        <mxCell id="CX8VXaGz0tjRuIeD6k8V-140" value="&lt;div&gt;&lt;font style=&quot;font-size: 19px;&quot;&gt;Dense (1024)&lt;/font&gt;&lt;/div&gt;" style="rounded=0;whiteSpace=wrap;html=1;rotation=-90;fillColor=#fff2cc;strokeColor=light-dark(#000000, #6d5100);strokeWidth=2;" vertex="1" parent="1">
          <mxGeometry x="1210" y="190" width="120" height="40" as="geometry" />
        </mxCell>
        <mxCell id="CX8VXaGz0tjRuIeD6k8V-145" style="edgeStyle=orthogonalEdgeStyle;rounded=0;orthogonalLoop=1;jettySize=auto;html=1;entryX=0.5;entryY=0;entryDx=0;entryDy=0;" edge="1" parent="1" source="CX8VXaGz0tjRuIeD6k8V-141" target="CX8VXaGz0tjRuIeD6k8V-143">
          <mxGeometry relative="1" as="geometry" />
        </mxCell>
        <mxCell id="CX8VXaGz0tjRuIeD6k8V-141" value="&lt;font style=&quot;font-size: 21px;&quot;&gt;&lt;span style=&quot;color: light-dark(rgb(255, 255, 255), rgb(237, 237, 237));&quot;&gt;LeakyRELU&lt;/span&gt;&lt;/font&gt;" style="rounded=0;whiteSpace=wrap;html=1;rotation=-90;fillColor=#f0a30a;strokeColor=light-dark(#000000, #51afe7);fontColor=#000000;strokeWidth=2;" vertex="1" parent="1">
          <mxGeometry x="1270" y="190" width="120" height="40" as="geometry" />
        </mxCell>
        <mxCell id="CX8VXaGz0tjRuIeD6k8V-143" value="&lt;div&gt;&lt;font style=&quot;font-size: 19px;&quot;&gt;Dense (1)&lt;/font&gt;&lt;/div&gt;" style="rounded=0;whiteSpace=wrap;html=1;rotation=-90;fillColor=#fff2cc;strokeColor=light-dark(#000000, #6d5100);strokeWidth=2;" vertex="1" parent="1">
          <mxGeometry x="1330" y="190" width="120" height="40" as="geometry" />
        </mxCell>
      </root>
    </mxGraphModel>
  </diagram>
</mxfile>
